<svg id="visual" viewBox="0 0 900 200" width="900" height="200" xmlns="http://www.w3.org/2000/svg" xmlns:xlink="http://www.w3.org/1999/xlink" version="1.1"><path d="M0 47L10.7 43.7C21.3 40.3 42.7 33.7 64.2 31C85.7 28.3 107.3 29.7 128.8 27C150.3 24.3 171.7 17.7 193 13.7C214.3 9.7 235.7 8.3 257 15.7C278.3 23 299.7 39 321.2 47C342.7 55 364.3 55 385.8 48.3C407.3 41.7 428.7 28.3 450 27.3C471.3 26.3 492.7 37.7 514.2 39.3C535.7 41 557.3 33 578.8 26.7C600.3 20.3 621.7 15.7 643 17.7C664.3 19.7 685.7 28.3 707 28.3C728.3 28.3 749.7 19.7 771.2 23C792.7 26.3 814.3 41.7 835.8 44C857.3 46.3 878.7 35.7 889.3 30.3L900 25L900 0L889.3 0C878.7 0 857.3 0 835.8 0C814.3 0 792.7 0 771.2 0C749.7 0 728.3 0 707 0C685.7 0 664.3 0 643 0C621.7 0 600.3 0 578.8 0C557.3 0 535.7 0 514.2 0C492.7 0 471.3 0 450 0C428.7 0 407.3 0 385.8 0C364.3 0 342.7 0 321.2 0C299.7 0 278.3 0 257 0C235.7 0 214.3 0 193 0C171.7 0 150.3 0 128.8 0C107.3 0 85.7 0 64.2 0C42.7 0 21.3 0 10.7 0L0 0Z" fill="#806bee"></path><path d="M0 133L10.7 120.7C21.3 108.3 42.7 83.7 64.2 70.7C85.7 57.7 107.3 56.3 128.8 62C150.3 67.7 171.7 80.3 193 79C214.3 77.7 235.7 62.3 257 65.3C278.3 68.3 299.7 89.7 321.2 101.7C342.7 113.7 364.3 116.3 385.8 118.3C407.3 120.3 428.7 121.7 450 125C471.3 128.3 492.7 133.7 514.2 122.3C535.7 111 557.3 83 578.8 76C600.3 69 621.7 83 643 92.7C664.3 102.3 685.7 107.7 707 105.3C728.3 103 749.7 93 771.2 93.3C792.7 93.7 814.3 104.3 835.8 100C857.3 95.7 878.7 76.3 889.3 66.7L900 57L900 23L889.3 28.3C878.7 33.7 857.3 44.3 835.8 42C814.3 39.7 792.7 24.3 771.2 21C749.7 17.7 728.3 26.3 707 26.3C685.7 26.3 664.3 17.7 643 15.7C621.7 13.7 600.3 18.3 578.8 24.7C557.3 31 535.7 39 514.2 37.3C492.7 35.7 471.3 24.3 450 25.3C428.7 26.3 407.3 39.7 385.8 46.3C364.3 53 342.7 53 321.2 45C299.7 37 278.3 21 257 13.7C235.7 6.3 214.3 7.7 193 11.7C171.7 15.7 150.3 22.3 128.8 25C107.3 27.7 85.7 26.3 64.2 29C42.7 31.7 21.3 38.3 10.7 41.7L0 45Z" fill="#563de4"></path><path d="M0 189L10.7 174C21.3 159 42.7 129 64.2 117.7C85.7 106.3 107.3 113.7 128.8 126.3C150.3 139 171.7 157 193 146C214.3 135 235.7 95 257 88C278.3 81 299.7 107 321.2 120.7C342.7 134.3 364.3 135.7 385.8 142.7C407.3 149.7 428.7 162.3 450 168.7C471.3 175 492.7 175 514.2 164.7C535.7 154.3 557.3 133.7 578.8 130.7C600.3 127.7 621.7 142.3 643 150.3C664.3 158.3 685.7 159.7 707 159.3C728.3 159 749.7 157 771.2 159.7C792.7 162.3 814.3 169.7 835.8 157C857.3 144.3 878.7 111.7 889.3 95.3L900 79L900 55L889.3 64.7C878.7 74.3 857.3 93.7 835.8 98C814.3 102.3 792.7 91.7 771.2 91.3C749.7 91 728.3 101 707 103.3C685.7 105.7 664.3 100.3 643 90.7C621.7 81 600.3 67 578.8 74C557.3 81 535.7 109 514.2 120.3C492.7 131.7 471.3 126.3 450 123C428.7 119.7 407.3 118.3 385.8 116.3C364.3 114.3 342.7 111.7 321.2 99.7C299.7 87.7 278.3 66.3 257 63.3C235.7 60.3 214.3 75.7 193 77C171.7 78.3 150.3 65.7 128.8 60C107.3 54.3 85.7 55.7 64.2 68.7C42.7 81.7 21.3 106.3 10.7 118.7L0 131Z" fill="#3420ca"></path><path d="M0 201L10.7 201C21.3 201 42.7 201 64.2 201C85.7 201 107.3 201 128.8 201C150.3 201 171.7 201 193 201C214.3 201 235.7 201 257 201C278.3 201 299.7 201 321.2 201C342.7 201 364.3 201 385.8 201C407.3 201 428.7 201 450 201C471.3 201 492.7 201 514.2 201C535.7 201 557.3 201 578.8 201C600.3 201 621.7 201 643 201C664.3 201 685.7 201 707 201C728.3 201 749.7 201 771.2 201C792.7 201 814.3 201 835.8 201C857.3 201 878.7 201 889.3 201L900 201L900 77L889.3 93.3C878.7 109.7 857.3 142.3 835.8 155C814.3 167.7 792.7 160.3 771.2 157.7C749.7 155 728.3 157 707 157.3C685.7 157.7 664.3 156.3 643 148.3C621.7 140.3 600.3 125.7 578.8 128.7C557.3 131.7 535.7 152.3 514.2 162.7C492.7 173 471.3 173 450 166.7C428.7 160.3 407.3 147.7 385.8 140.7C364.3 133.7 342.7 132.3 321.2 118.7C299.7 105 278.3 79 257 86C235.7 93 214.3 133 193 144C171.7 155 150.3 137 128.8 124.3C107.3 111.7 85.7 104.3 64.2 115.7C42.7 127 21.3 157 10.7 172L0 187Z" fill="#271ca3"></path></svg>