<svg id="visual" viewBox="0 0 900 200" width="900" height="200" xmlns="http://www.w3.org/2000/svg" xmlns:xlink="http://www.w3.org/1999/xlink" version="1.1"><path d="M0 83L12.5 86.7C25 90.3 50 97.7 75 97.7C100 97.7 125 90.3 150 87.3C175 84.3 200 85.7 225 78C250 70.3 275 53.7 300 43C325 32.3 350 27.7 375 27.7C400 27.7 425 32.3 450 40C475 47.7 500 58.3 525 56.3C550 54.3 575 39.7 600 33.3C625 27 650 29 675 38C700 47 725 63 750 64.3C775 65.7 800 52.3 825 44.3C850 36.3 875 33.7 887.5 32.3L900 31L900 0L887.5 0C875 0 850 0 825 0C800 0 775 0 750 0C725 0 700 0 675 0C650 0 625 0 600 0C575 0 550 0 525 0C500 0 475 0 450 0C425 0 400 0 375 0C350 0 325 0 300 0C275 0 250 0 225 0C200 0 175 0 150 0C125 0 100 0 75 0C50 0 25 0 12.5 0L0 0Z" fill="#271ca3"></path><path d="M0 151L12.5 150.7C25 150.3 50 149.7 75 143C100 136.3 125 123.7 150 115C175 106.3 200 101.7 225 96.7C250 91.7 275 86.3 300 82C325 77.7 350 74.3 375 74C400 73.7 425 76.3 450 84.7C475 93 500 107 525 100C550 93 575 65 600 53C625 41 650 45 675 57C700 69 725 89 750 95C775 101 800 93 825 83.3C850 73.7 875 62.3 887.5 56.7L900 51L900 29L887.5 30.3C875 31.7 850 34.3 825 42.3C800 50.3 775 63.7 750 62.3C725 61 700 45 675 36C650 27 625 25 600 31.3C575 37.7 550 52.3 525 54.3C500 56.3 475 45.7 450 38C425 30.3 400 25.7 375 25.7C350 25.7 325 30.3 300 41C275 51.7 250 68.3 225 76C200 83.7 175 82.3 150 85.3C125 88.3 100 95.7 75 95.7C50 95.7 25 88.3 12.5 84.7L0 81Z" fill="#301fc0"></path><path d="M0 167L12.5 168.7C25 170.3 50 173.7 75 170.7C100 167.7 125 158.3 150 152.3C175 146.3 200 143.7 225 136.7C250 129.7 275 118.3 300 109C325 99.7 350 92.3 375 89C400 85.7 425 86.3 450 98.3C475 110.3 500 133.7 525 133C550 132.3 575 107.7 600 96.7C625 85.7 650 88.3 675 95.7C700 103 725 115 750 118C775 121 800 115 825 108C850 101 875 93 887.5 89L900 85L900 49L887.5 54.7C875 60.3 850 71.7 825 81.3C800 91 775 99 750 93C725 87 700 67 675 55C650 43 625 39 600 51C575 63 550 91 525 98C500 105 475 91 450 82.7C425 74.3 400 71.7 375 72C350 72.3 325 75.7 300 80C275 84.3 250 89.7 225 94.7C200 99.7 175 104.3 150 113C125 121.7 100 134.3 75 141C50 147.7 25 148.3 12.5 148.7L0 149Z" fill="#3b22de"></path><path d="M0 187L12.5 188.3C25 189.7 50 192.3 75 188.3C100 184.3 125 173.7 150 168.7C175 163.7 200 164.3 225 166.7C250 169 275 173 300 173.7C325 174.3 350 171.7 375 171.3C400 171 425 173 450 173.3C475 173.7 500 172.3 525 173.7C550 175 575 179 600 178.7C625 178.3 650 173.7 675 170C700 166.3 725 163.7 750 164.3C775 165 800 169 825 174.7C850 180.3 875 187.7 887.5 191.3L900 195L900 83L887.5 87C875 91 850 99 825 106C800 113 775 119 750 116C725 113 700 101 675 93.7C650 86.3 625 83.7 600 94.7C575 105.7 550 130.3 525 131C500 131.7 475 108.3 450 96.3C425 84.3 400 83.7 375 87C350 90.3 325 97.7 300 107C275 116.3 250 127.7 225 134.7C200 141.7 175 144.3 150 150.3C125 156.3 100 165.7 75 168.7C50 171.7 25 168.3 12.5 166.7L0 165Z" fill="#6149e7"></path><path d="M0 201L12.5 201C25 201 50 201 75 201C100 201 125 201 150 201C175 201 200 201 225 201C250 201 275 201 300 201C325 201 350 201 375 201C400 201 425 201 450 201C475 201 500 201 525 201C550 201 575 201 600 201C625 201 650 201 675 201C700 201 725 201 750 201C775 201 800 201 825 201C850 201 875 201 887.5 201L900 201L900 193L887.5 189.3C875 185.7 850 178.3 825 172.7C800 167 775 163 750 162.3C725 161.7 700 164.3 675 168C650 171.7 625 176.3 600 176.7C575 177 550 173 525 171.7C500 170.3 475 171.7 450 171.3C425 171 400 169 375 169.3C350 169.7 325 172.3 300 171.7C275 171 250 167 225 164.7C200 162.3 175 161.7 150 166.7C125 171.7 100 182.3 75 186.3C50 190.3 25 187.7 12.5 186.3L0 185Z" fill="#806bee"></path></svg>